solid exported
	facet normal 0 -1 2.220446049250313e-16
		outer loop
			vertex -10 3.552713678800501e-15 5.773159728050814e-15
			vertex 10 7.105427357601002e-15 20.000000000000004
			vertex -10 7.105427357601002e-15 20.000000000000004
		endloop
	endfacet
	facet normal 0 -1 2.220446049250313e-16
		outer loop
			vertex -10 3.552713678800501e-15 5.773159728050814e-15
			vertex 10 3.552713678800501e-15 5.773159728050814e-15
			vertex 10 7.105427357601002e-15 20.000000000000004
		endloop
	endfacet
	facet normal 1 0 0
		outer loop
			vertex 10 3.552713678800501e-15 5.773159728050814e-15
			vertex 10 20.000000000000007 19.999999999999996
			vertex 10 7.105427357601002e-15 20.000000000000004
		endloop
	endfacet
	facet normal 1 0 0
		outer loop
			vertex 10 3.552713678800501e-15 5.773159728050814e-15
			vertex 10 20.000000000000004 -2.220446049250313e-15
			vertex 10 20.000000000000007 19.999999999999996
		endloop
	endfacet
	facet normal 0 1 -2.220446049250313e-16
		outer loop
			vertex 10 20.000000000000004 -2.220446049250313e-15
			vertex -10 20.000000000000007 19.999999999999996
			vertex 10 20.000000000000007 19.999999999999996
		endloop
	endfacet
	facet normal 0 1 -2.220446049250313e-16
		outer loop
			vertex 10 20.000000000000004 -2.220446049250313e-15
			vertex -10 20.000000000000004 -2.220446049250313e-15
			vertex -10 20.000000000000007 19.999999999999996
		endloop
	endfacet
	facet normal -1 0 0
		outer loop
			vertex -10 20.000000000000004 -2.220446049250313e-15
			vertex -10 7.105427357601002e-15 20.000000000000004
			vertex -10 20.000000000000007 19.999999999999996
		endloop
	endfacet
	facet normal -1 0 0
		outer loop
			vertex -10 20.000000000000004 -2.220446049250313e-15
			vertex -10 3.552713678800501e-15 5.773159728050814e-15
			vertex -10 7.105427357601002e-15 20.000000000000004
		endloop
	endfacet
	facet normal 0 2.220446049250313e-16 1
		outer loop
			vertex -10 7.105427357601002e-15 20.000000000000004
			vertex 10 20.000000000000007 19.999999999999996
			vertex -10 20.000000000000007 19.999999999999996
		endloop
	endfacet
	facet normal 0 2.220446049250313e-16 1
		outer loop
			vertex -10 7.105427357601002e-15 20.000000000000004
			vertex 10 7.105427357601002e-15 20.000000000000004
			vertex 10 20.000000000000007 19.999999999999996
		endloop
	endfacet
	facet normal 0 -3.9968028886505636e-16 -1
		outer loop
			vertex -10 20.000000000000004 -2.220446049250313e-15
			vertex 10 3.552713678800501e-15 5.773159728050814e-15
			vertex -10 3.552713678800501e-15 5.773159728050814e-15
		endloop
	endfacet
	facet normal 0 -3.9968028886505636e-16 -1
		outer loop
			vertex -10 20.000000000000004 -2.220446049250313e-15
			vertex 10 20.000000000000004 -2.220446049250313e-15
			vertex 10 3.552713678800501e-15 5.773159728050814e-15
		endloop
	endfacet
endsolid exported
