solid exported
	facet normal -1 0 0
		outer loop
			vertex -20.524750771429638 40.000000000000014 65.99712379062322
			vertex -20.524750771429638 40.00000000000001 25.99712379062321
			vertex -20.524750771429638 1.423806649167945e-14 65.99712379062322
		endloop
	endfacet
	facet normal -1 0 0
		outer loop
			vertex -20.524750771429638 40.00000000000001 25.99712379062321
			vertex -20.524750771429638 4.440892098500626e-15 25.99712379062322
			vertex -20.524750771429638 1.423806649167945e-14 65.99712379062322
		endloop
	endfacet
	facet normal 0 -1 2.495832781710156e-16
		outer loop
			vertex -10.444062294867138 6.278251355063757e-15 33.35883195483831
			vertex -20.524750771429638 4.440892098500626e-15 25.99712379062322
			vertex -7.2191477440858876 6.278251355063757e-15 33.35883195483831
		endloop
	endfacet
	facet normal 0 -1 2.495832781710156e-16
		outer loop
			vertex -7.2191477440858876 6.278251355063757e-15 33.35883195483831
			vertex -20.524750771429638 4.440892098500626e-15 25.99712379062322
			vertex 4.5456837988828624 6.278251355063757e-15 33.35883195483831
		endloop
	endfacet
	facet normal 0 -1 2.406106055537756e-16
		outer loop
			vertex -7.2191477440858876 6.278251355063757e-15 33.35883195483831
			vertex 4.5456837988828624 6.278251355063757e-15 33.35883195483831
			vertex -1.4185801171327626 8.63401194245593e-15 43.14959151828435
		endloop
	endfacet
	facet normal -2.160429237798556e-17 -1 2.0576971079991294e-16
		outer loop
			vertex 8.108733115289112 6.20128047546816e-15 33.35886247241643
			vertex 4.5456837988828624 6.278251355063757e-15 33.35883195483831
			vertex 19.475249228570362 4.440892098500626e-15 25.99712379062322
		endloop
	endfacet
	facet normal 0 -1 2.495832781710156e-16
		outer loop
			vertex 4.5456837988828624 6.278251355063757e-15 33.35883195483831
			vertex -20.524750771429638 4.440892098500626e-15 25.99712379062322
			vertex 19.475249228570362 4.440892098500626e-15 25.99712379062322
		endloop
	endfacet
	facet normal 1.189861552567784e-17 -1 2.4492935982947064e-16
		outer loop
			vertex -20.524750771429638 1.423806649167945e-14 65.99712379062322
			vertex -20.524750771429638 4.440892098500626e-15 25.99712379062322
			vertex -10.009499611761669 1.2396757876518884e-14 57.968582225681814
		endloop
	endfacet
	facet normal -7.216738592549631e-18 -1 2.487486699120964e-16
		outer loop
			vertex -10.444062294867138 6.278251355063757e-15 33.35883195483831
			vertex -3.35356241693745 9.40441241678142e-15 46.1320915945783
			vertex -10.009499611761669 1.2396757876518884e-14 57.968582225681814
		endloop
	endfacet
	facet normal 7.117368926553492e-19 -1 2.486086676958257e-16
		outer loop
			vertex -20.524750771429638 4.440892098500626e-15 25.99712379062322
			vertex -10.444062294867138 6.278251355063757e-15 33.35883195483831
			vertex -10.009499611761669 1.2396757876518884e-14 57.968582225681814
		endloop
	endfacet
	facet normal -8.109004897870077e-17 -1 1.2313897556647542e-16
		outer loop
			vertex -20.524750771429638 1.423806649167945e-14 65.99712379062322
			vertex -10.009499611761669 1.2396757876518884e-14 57.968582225681814
			vertex -6.7149363183046376 1.21311272864317e-14 57.980972362400564
		endloop
	endfacet
	facet normal 0 -1 2.3086306309507097e-16
		outer loop
			vertex -6.7149363183046376 1.21311272864317e-14 57.980972362400564
			vertex -1.4543772362733876 9.981555831692018e-15 48.66994865024236
			vertex 4.42304891118755 1.21311272864317e-14 57.980972362400564
		endloop
	endfacet
	facet normal 0 -1 2.628367520391146e-16
		outer loop
			vertex -20.524750771429638 1.423806649167945e-14 65.99712379062322
			vertex -6.7149363183046376 1.21311272864317e-14 57.980972362400564
			vertex 4.42304891118755 1.21311272864317e-14 57.980972362400564
		endloop
	endfacet
	facet normal 1.865792312877928e-17 -1 2.55802954163622e-16
		outer loop
			vertex 0.09023946294536245 9.295768192390077e-15 46.040874553562674
			vertex 8.108733115289112 6.20128047546816e-15 33.35886247241643
			vertex 7.676924643609425 1.2473595386418701e-14 57.91046149814275
		endloop
	endfacet
	facet normal 1.0710148333149412e-17 -1 2.556631703359308e-16
		outer loop
			vertex 8.108733115289112 6.20128047546816e-15 33.35886247241643
			vertex 19.475249228570362 4.440892098500626e-15 25.99712379062322
			vertex 7.676924643609425 1.2473595386418701e-14 57.91046149814275
		endloop
	endfacet
	facet normal 1.0660705324847787e-16 -1 6.265706043643577e-17
		outer loop
			vertex 4.42304891118755 1.21311272864317e-14 57.980972362400564
			vertex 7.676924643609425 1.2473595386418701e-14 57.91046149814275
			vertex 19.475249228570362 1.423806649167945e-14 65.99712379062322
		endloop
	endfacet
	facet normal -1.8323780773855133e-17 -1 2.4492935982947064e-16
		outer loop
			vertex 7.676924643609425 1.2473595386418701e-14 57.91046149814275
			vertex 19.475249228570362 4.440892098500626e-15 25.99712379062322
			vertex 19.475249228570362 1.423806649167945e-14 65.99712379062322
		endloop
	endfacet
	facet normal 0 -1 2.628367520391146e-16
		outer loop
			vertex -20.524750771429638 1.423806649167945e-14 65.99712379062322
			vertex 4.42304891118755 1.21311272864317e-14 57.980972362400564
			vertex 19.475249228570362 1.423806649167945e-14 65.99712379062322
		endloop
	endfacet
	facet normal 0 2.4492935982947064e-16 1
		outer loop
			vertex -7.880369248297313 8.854481697082534 65.99712379062322
			vertex -20.524750771429638 1.423806649167945e-14 65.99712379062322
			vertex -7.880369248297313 8.014139175415053 65.99712379062322
		endloop
	endfacet
	facet normal 0 2.4492935982947064e-16 1
		outer loop
			vertex 19.475249228570362 1.423806649167945e-14 65.99712379062322
			vertex 7.6996239996885265 8.014139175415053 65.99712379062322
			vertex -7.880369248297313 8.014139175415053 65.99712379062322
		endloop
	endfacet
	facet normal 0 2.4492935982947064e-16 1
		outer loop
			vertex 19.475249228570362 1.423806649167945e-14 65.99712379062322
			vertex 7.6996239996885265 11.039376258850112 65.99712379062322
			vertex 7.6996239996885265 8.014139175415053 65.99712379062322
		endloop
	endfacet
	facet normal 0 2.4492935982947064e-16 1
		outer loop
			vertex 19.475249228570362 1.423806649167945e-14 65.99712379062322
			vertex -7.880369248297313 8.014139175415053 65.99712379062322
			vertex -20.524750771429638 1.423806649167945e-14 65.99712379062322
		endloop
	endfacet
	facet normal 0 2.4492935982947064e-16 1
		outer loop
			vertex -7.7123022698427235 29.610994338989272 65.99712379062322
			vertex -20.524750771429638 40.000000000000014 65.99712379062322
			vertex -20.524750771429638 1.423806649167945e-14 65.99712379062322
		endloop
	endfacet
	facet normal 0 2.4492935982947064e-16 1
		outer loop
			vertex -7.7123022698427235 29.610994338989272 65.99712379062322
			vertex -20.524750771429638 1.423806649167945e-14 65.99712379062322
			vertex -7.880369248297313 8.854481697082534 65.99712379062322
		endloop
	endfacet
	facet normal 0 2.4492935982947064e-16 1
		outer loop
			vertex -7.7123022698427235 32.63624191284181 65.99712379062322
			vertex -20.524750771429638 40.000000000000014 65.99712379062322
			vertex -7.7123022698427235 29.610994338989272 65.99712379062322
		endloop
	endfacet
	facet normal 0 2.4492935982947064e-16 1
		outer loop
			vertex 19.475249228570362 40.000000000000014 65.99712379062322
			vertex 7.329871115777394 32.63624191284181 65.99712379062322
			vertex 7.329871115777394 31.79588890075685 65.99712379062322
		endloop
	endfacet
	facet normal 0 2.4492935982947064e-16 1
		outer loop
			vertex 19.475249228570362 40.000000000000014 65.99712379062322
			vertex 7.6996239996885265 11.039376258850112 65.99712379062322
			vertex 19.475249228570362 1.423806649167945e-14 65.99712379062322
		endloop
	endfacet
	facet normal 0 2.4492935982947064e-16 1
		outer loop
			vertex 19.475249228570362 40.000000000000014 65.99712379062322
			vertex 7.329871115777394 31.79588890075685 65.99712379062322
			vertex 7.6996239996885265 11.039376258850112 65.99712379062322
		endloop
	endfacet
	facet normal 0 2.4492935982947064e-16 1
		outer loop
			vertex 19.475249228570362 40.000000000000014 65.99712379062322
			vertex -20.524750771429638 40.000000000000014 65.99712379062322
			vertex -7.7123022698427235 32.63624191284181 65.99712379062322
		endloop
	endfacet
	facet normal 0 2.4492935982947064e-16 1
		outer loop
			vertex 19.475249228570362 40.000000000000014 65.99712379062322
			vertex -7.7123022698427235 32.63624191284181 65.99712379062322
			vertex 7.329871115777394 32.63624191284181 65.99712379062322
		endloop
	endfacet
	facet normal 0 2.4492935982947064e-16 1
		outer loop
			vertex 7.329871115777394 31.79588890075685 65.99712379062322
			vertex -3.2920866631532704 11.039376258850112 65.99712379062322
			vertex 7.6996239996885265 11.039376258850112 65.99712379062322
		endloop
	endfacet
	facet normal 0 2.4492935982947064e-16 1
		outer loop
			vertex -7.880369248297313 8.854481697082534 65.99712379062322
			vertex 2.7079781867002453 29.610994338989272 65.99712379062322
			vertex -7.7123022698427235 29.610994338989272 65.99712379062322
		endloop
	endfacet
	facet normal 0 1 -2.4492935982947064e-16
		outer loop
			vertex 19.475249228570362 40.000000000000014 65.99712379062322
			vertex 19.475249228570362 40.00000000000001 25.99712379062321
			vertex -20.524750771429638 40.00000000000001 25.99712379062321
		endloop
	endfacet
	facet normal 0 1 -2.4492935982947064e-16
		outer loop
			vertex 19.475249228570362 40.000000000000014 65.99712379062322
			vertex -20.524750771429638 40.00000000000001 25.99712379062321
			vertex -20.524750771429638 40.000000000000014 65.99712379062322
		endloop
	endfacet
	facet normal 0 -2.4492935982947064e-16 -1
		outer loop
			vertex -20.524750771429638 4.440892098500626e-15 25.99712379062322
			vertex -20.524750771429638 40.00000000000001 25.99712379062321
			vertex 19.475249228570362 40.00000000000001 25.99712379062321
		endloop
	endfacet
	facet normal 0 -2.4492935982947064e-16 -1
		outer loop
			vertex 19.475249228570362 4.440892098500626e-15 25.99712379062322
			vertex -20.524750771429638 4.440892098500626e-15 25.99712379062322
			vertex 19.475249228570362 40.00000000000001 25.99712379062321
		endloop
	endfacet
	facet normal 1 0 0
		outer loop
			vertex 19.475249228570362 20.90183639526368 44.45674331271795
			vertex 19.475249228570362 21.021179199218757 33.43205316150334
			vertex 19.475249228570362 40.00000000000001 25.99712379062321
		endloop
	endfacet
	facet normal 1 0 0
		outer loop
			vertex 19.475249228570362 4.440892098500626e-15 25.99712379062322
			vertex 19.475249228570362 21.021179199218757 33.43205316150334
			vertex 19.475249228570362 17.65999603271485 33.395670009495284
		endloop
	endfacet
	facet normal 1 0 0
		outer loop
			vertex 19.475249228570362 4.440892098500626e-15 25.99712379062322
			vertex 19.475249228570362 40.00000000000001 25.99712379062321
			vertex 19.475249228570362 21.021179199218757 33.43205316150334
		endloop
	endfacet
	facet normal 1 0 0
		outer loop
			vertex 19.475249228570362 17.540653228759773 44.42036063754705
			vertex 19.475249228570362 4.440892098500626e-15 25.99712379062322
			vertex 19.475249228570362 17.65999603271485 33.395670009495284
		endloop
	endfacet
	facet normal 1 0 0
		outer loop
			vertex 19.475249228570362 28.653438568115245 58.13824088657048
			vertex 19.475249228570362 40.00000000000001 25.99712379062321
			vertex 19.475249228570362 40.000000000000014 65.99712379062322
		endloop
	endfacet
	facet normal 1 0 0
		outer loop
			vertex 19.475249228570362 28.653438568115245 58.13824088657048
			vertex 19.475249228570362 20.90183639526368 44.45674331271795
			vertex 19.475249228570362 40.00000000000001 25.99712379062321
		endloop
	endfacet
	facet normal 1 0 0
		outer loop
			vertex 19.475249228570362 25.19141960144044 58.10076530063298
			vertex 19.475249228570362 28.653438568115245 58.13824088657048
			vertex 19.475249228570362 40.000000000000014 65.99712379062322
		endloop
	endfacet
	facet normal 1 0 0
		outer loop
			vertex 19.475249228570362 12.923105239868175 57.96796996677068
			vertex 19.475249228570362 19.173698425292976 47.27857215488103
			vertex 19.475249228570362 25.19141960144044 58.10076530063298
		endloop
	endfacet
	facet normal 1 0 0
		outer loop
			vertex 19.475249228570362 9.461084365844737 57.93049438083318
			vertex 19.475249228570362 4.440892098500626e-15 25.99712379062322
			vertex 19.475249228570362 17.540653228759773 44.42036063754705
		endloop
	endfacet
	facet normal 1 0 0
		outer loop
			vertex 19.475249228570362 1.423806649167945e-14 65.99712379062322
			vertex 19.475249228570362 9.461084365844737 57.93049438083318
			vertex 19.475249228570362 12.923105239868175 57.96796996677068
		endloop
	endfacet
	facet normal 1 0 0
		outer loop
			vertex 19.475249228570362 1.423806649167945e-14 65.99712379062322
			vertex 19.475249228570362 12.923105239868175 57.96796996677068
			vertex 19.475249228570362 25.19141960144044 58.10076530063298
		endloop
	endfacet
	facet normal 1 0 0
		outer loop
			vertex 19.475249228570362 1.423806649167945e-14 65.99712379062322
			vertex 19.475249228570362 25.19141960144044 58.10076530063298
			vertex 19.475249228570362 40.000000000000014 65.99712379062322
		endloop
	endfacet
	facet normal 1 0 0
		outer loop
			vertex 19.475249228570362 1.423806649167945e-14 65.99712379062322
			vertex 19.475249228570362 4.440892098500626e-15 25.99712379062322
			vertex 19.475249228570362 9.461084365844737 57.93049438083318
		endloop
	endfacet
	facet normal -0.8425886531304562 0.00044836166560596904 0.5385574812289036
		outer loop
			vertex 7.676924643609425 1.2473595386418701e-14 57.91046149814275
			vertex 7.676924643609425 3.803135156631482 57.90729529941228
			vertex 0.09023946294536245 9.295768192390077e-15 46.040874553562674
		endloop
	endfacet
	facet normal -0.8425886654260865 0.00044844643602751875 0.5385574619214561
		outer loop
			vertex 0.09023946294536245 9.295768192390077e-15 46.040874553562674
			vertex 7.676924643609425 3.803135156631482 57.90729529941228
			vertex 0.09023946294536245 3.7932536602020357 46.037715984226736
		endloop
	endfacet
	facet normal -0.8452238658442335 -0.0004449947710485712 -0.5344122178496511
		outer loop
			vertex 0.09023946294536245 9.295768192390077e-15 46.040874553562674
			vertex 0.09023946294536245 3.7932536602020357 46.037715984226736
			vertex 8.108733115289112 6.20128047546816e-15 33.35886247241643
		endloop
	endfacet
	facet normal -0.84522385166002 -0.0004448895103341572 -0.5344122403709748
		outer loop
			vertex 8.108733115289112 6.20128047546816e-15 33.35886247241643
			vertex 0.09023946294536245 3.7932536602020357 46.037715984226736
			vertex 8.108733115289112 3.782695531845099 33.35571343982366
		endloop
	endfacet
	facet normal -0.000008565014076167793 0.0008324834697805125 0.9999996534488965
		outer loop
			vertex 4.5456837988828624 6.278251355063757e-15 33.35883195483831
			vertex 8.108733115289112 6.20128047546816e-15 33.35886247241643
			vertex 8.108733115289112 3.782695531845099 33.35571343982366
		endloop
	endfacet
	facet normal -0.00000856501407616781 0.0008324834697805125 0.9999996534488965
		outer loop
			vertex 4.5456837988828624 6.278251355063757e-15 33.35883195483831
			vertex 8.108733115289112 3.782695531845099 33.35571343982366
			vertex 4.5456837988828624 3.782695531845099 33.355682922245535
		endloop
	endfacet
	facet normal 0.8540174603356111 0.0004329488550240957 0.520244163828103
		outer loop
			vertex -1.4185801171327626 8.63401194245593e-15 43.14959151828435
			vertex 4.5456837988828624 6.278251355063757e-15 33.35883195483831
			vertex -1.4185801171327626 3.7908465862274254 43.14643676364568
		endloop
	endfacet
	facet normal 0.8540174853908379 0.0004330947823850594 0.5202441225767181
		outer loop
			vertex 4.5456837988828624 6.278251355063757e-15 33.35883195483831
			vertex 4.5456837988828624 3.782695531845099 33.355682922245535
			vertex -1.4185801171327626 3.7908465862274254 43.14643676364568
		endloop
	endfacet
	facet normal -0.8603440178996572 0.0004241853162952381 0.5097136362028112
		outer loop
			vertex -1.4185801171327626 8.63401194245593e-15 43.14959151828435
			vertex -1.4185801171327626 3.7908465862274254 43.14643676364568
			vertex -7.2191477440858876 6.278251355063757e-15 33.35883195483831
		endloop
	endfacet
	facet normal -0.8603440421290095 0.0004243282893671434 0.50971359518716
		outer loop
			vertex -7.2191477440858876 6.278251355063757e-15 33.35883195483831
			vertex -1.4185801171327626 3.7908465862274254 43.14643676364568
			vertex -7.2191477440858876 3.782695531845099 33.355682922245535
		endloop
	endfacet
	facet normal 0 0.0008324834698110478 0.9999996534855762
		outer loop
			vertex -10.444062294867138 6.278251355063757e-15 33.35883195483831
			vertex -7.2191477440858876 6.278251355063757e-15 33.35883195483831
			vertex -10.444062294867138 3.782695531845099 33.355682922245535
		endloop
	endfacet
	facet normal 0 0.0008324834698110478 0.9999996534855762
		outer loop
			vertex -7.2191477440858876 6.278251355063757e-15 33.35883195483831
			vertex -7.2191477440858876 3.782695531845099 33.355682922245535
			vertex -10.444062294867138 3.782695531845099 33.355682922245535
		endloop
	endfacet
	facet normal 0.8743244001051464 -0.000404126715641556 -0.4853418177556658
		outer loop
			vertex -3.35356241693745 9.40441241678142e-15 46.1320915945783
			vertex -10.444062294867138 6.278251355063757e-15 33.35883195483831
			vertex -3.35356241693745 3.79332947731019 46.12893302524236
		endloop
	endfacet
	facet normal 0.8743243891048936 -0.0004040391970526379 -0.4853418376450583
		outer loop
			vertex -10.444062294867138 6.278251355063757e-15 33.35883195483831
			vertex -10.444062294867138 3.782695531845099 33.355682922245535
			vertex -3.35356241693745 3.79332947731019 46.12893302524236
		endloop
	endfacet
	facet normal 0.8716411833281572 0.00040805140928141045 0.4901443471267797
		outer loop
			vertex -10.009499611761669 1.2396757876518884e-14 57.968582225681814
			vertex -3.35356241693745 9.40441241678142e-15 46.1320915945783
			vertex -10.009499611761669 3.80318355560304 57.965416026951345
		endloop
	endfacet
	facet normal 0.871641193487481 0.0004081255944200272 0.49014432899832566
		outer loop
			vertex -3.35356241693745 9.40441241678142e-15 46.1320915945783
			vertex -3.35356241693745 3.79332947731019 46.12893302524236
			vertex -10.009499611761669 3.80318355560304 57.965416026951345
		endloop
	endfacet
	facet normal 0.003760754826253851 -0.000832504259490716 -0.9999925818023826
		outer loop
			vertex -6.7149363183046376 1.21311272864317e-14 57.980972362400564
			vertex -10.009499611761669 1.2396757876518884e-14 57.968582225681814
			vertex -6.7149363183046376 3.8031940460205202 57.977806163670095
		endloop
	endfacet
	facet normal 0.0037607574770434533 -0.0008325065557983993 -0.9999925817905019
		outer loop
			vertex -10.009499611761669 1.2396757876518884e-14 57.968582225681814
			vertex -10.009499611761669 3.80318355560304 57.965416026951345
			vertex -6.7149363183046376 3.8031940460205202 57.977806163670095
		endloop
	endfacet
	facet normal -0.8706506116360447 -0.00040951335106524276 -0.49190176331925956
		outer loop
			vertex -6.7149363183046376 1.21311272864317e-14 57.980972362400564
			vertex -6.7149363183046376 3.8031940460205202 57.977806163670095
			vertex -1.4543772362733876 9.981555831692018e-15 48.66994865024236
		endloop
	endfacet
	facet normal -0.8706505850276457 -0.0004093609742314856 -0.49190181054211524
		outer loop
			vertex -1.4543772362733876 9.981555831692018e-15 48.66994865024236
			vertex -6.7149363183046376 3.8031940460205202 57.977806163670095
			vertex -1.4543772362733876 3.795442342758189 48.666790080906424
		endloop
	endfacet
	facet normal 0.8456208419205238 -0.0004443806219338601 -0.5337838459858893
		outer loop
			vertex 4.42304891118755 1.21311272864317e-14 57.980972362400564
			vertex -1.4543772362733876 9.981555831692018e-15 48.66994865024236
			vertex 4.42304891118755 3.8031940460205202 57.977806163670095
		endloop
	endfacet
	facet normal 0.8456208114889368 -0.00044421526884100363 -0.533783894333266
		outer loop
			vertex -1.4543772362733876 9.981555831692018e-15 48.66994865024236
			vertex -1.4543772362733876 3.795442342758189 48.666790080906424
			vertex 4.42304891118755 3.8031940460205202 57.977806163670095
		endloop
	endfacet
	facet normal -0.021664715004061925 -0.0008323147503620834 -0.9997649460627979
		outer loop
			vertex 7.676924643609425 1.2473595386418701e-14 57.91046149814275
			vertex 4.42304891118755 1.21311272864317e-14 57.980972362400564
			vertex 4.42304891118755 3.8031940460205202 57.977806163670095
		endloop
	endfacet
	facet normal -0.021664730060415676 -0.0008323276380029681 -0.9997649457258003
		outer loop
			vertex 7.676924643609425 1.2473595386418701e-14 57.91046149814275
			vertex 4.42304891118755 3.8031940460205202 57.977806163670095
			vertex 7.676924643609425 3.803135156631482 57.90729529941228
		endloop
	endfacet
	facet normal -0.8902073497115714 0.4555555668845463 -1.1157893336378351e-16
		outer loop
			vertex 7.329871115777394 31.79588890075685 65.99712379062322
			vertex 7.329871115777394 31.795888900756847 61.99712379062321
			vertex -3.2920866631532704 11.039376258850112 65.99712379062322
		endloop
	endfacet
	facet normal -0.8902073497115714 0.4555555668845463 -1.1157893336378351e-16
		outer loop
			vertex -3.2920866631532704 11.039376258850112 65.99712379062322
			vertex 7.329871115777394 31.795888900756847 61.99712379062321
			vertex -3.2920866631532704 11.039376258850112 61.99712379062322
		endloop
	endfacet
	facet normal -1 0 0
		outer loop
			vertex 7.329871115777394 31.79588890075685 65.99712379062322
			vertex 7.329871115777394 32.63624191284181 65.99712379062322
			vertex 7.329871115777394 32.63624191284181 61.99712379062321
		endloop
	endfacet
	facet normal -1 0 0
		outer loop
			vertex 7.329871115777394 31.79588890075685 65.99712379062322
			vertex 7.329871115777394 32.63624191284181 61.99712379062321
			vertex 7.329871115777394 31.795888900756847 61.99712379062321
		endloop
	endfacet
	facet normal 0 -1 2.4492935982947064e-16
		outer loop
			vertex -7.7123022698427235 32.63624191284181 65.99712379062322
			vertex -7.7123022698427235 32.63624191284181 61.99712379062321
			vertex 7.329871115777394 32.63624191284181 65.99712379062322
		endloop
	endfacet
	facet normal 0 -1 2.4492935982947064e-16
		outer loop
			vertex 7.329871115777394 32.63624191284181 65.99712379062322
			vertex -7.7123022698427235 32.63624191284181 61.99712379062321
			vertex 7.329871115777394 32.63624191284181 61.99712379062321
		endloop
	endfacet
	facet normal 1 0 0
		outer loop
			vertex -7.7123022698427235 29.610994338989272 65.99712379062322
			vertex -7.7123022698427235 29.61099433898927 61.99712379062321
			vertex -7.7123022698427235 32.63624191284181 61.99712379062321
		endloop
	endfacet
	facet normal 1 0 0
		outer loop
			vertex -7.7123022698427235 32.63624191284181 65.99712379062322
			vertex -7.7123022698427235 29.610994338989272 65.99712379062322
			vertex -7.7123022698427235 32.63624191284181 61.99712379062321
		endloop
	endfacet
	facet normal 0 1 -2.4492935982947064e-16
		outer loop
			vertex 2.7079781867002453 29.610994338989272 65.99712379062322
			vertex 2.7079781867002453 29.61099433898927 61.99712379062321
			vertex -7.7123022698427235 29.61099433898927 61.99712379062321
		endloop
	endfacet
	facet normal 0 1 -2.4492935982947064e-16
		outer loop
			vertex -7.7123022698427235 29.610994338989272 65.99712379062322
			vertex 2.7079781867002453 29.610994338989272 65.99712379062322
			vertex -7.7123022698427235 29.61099433898927 61.99712379062321
		endloop
	endfacet
	facet normal 0.8907915772110285 -0.4544121102808424 1.1129886726984553e-16
		outer loop
			vertex -7.880369248297313 8.854481697082534 65.99712379062322
			vertex -7.880369248297313 8.854481697082534 61.99712379062322
			vertex 2.7079781867002453 29.610994338989272 65.99712379062322
		endloop
	endfacet
	facet normal 0.8907915772110285 -0.4544121102808424 1.1129886726984553e-16
		outer loop
			vertex 2.7079781867002453 29.610994338989272 65.99712379062322
			vertex -7.880369248297313 8.854481697082534 61.99712379062322
			vertex 2.7079781867002453 29.61099433898927 61.99712379062321
		endloop
	endfacet
	facet normal 1 0 0
		outer loop
			vertex -7.880369248297313 8.854481697082534 65.99712379062322
			vertex -7.880369248297313 8.014139175415053 65.99712379062322
			vertex -7.880369248297313 8.014139175415053 61.99712379062322
		endloop
	endfacet
	facet normal 1 0 0
		outer loop
			vertex -7.880369248297313 8.854481697082534 65.99712379062322
			vertex -7.880369248297313 8.014139175415053 61.99712379062322
			vertex -7.880369248297313 8.854481697082534 61.99712379062322
		endloop
	endfacet
	facet normal 0 1 -2.4492935982947064e-16
		outer loop
			vertex 7.6996239996885265 8.014139175415053 65.99712379062322
			vertex 7.6996239996885265 8.014139175415053 61.99712379062322
			vertex -7.880369248297313 8.014139175415053 61.99712379062322
		endloop
	endfacet
	facet normal 0 1 -2.4492935982947064e-16
		outer loop
			vertex -7.880369248297313 8.014139175415053 65.99712379062322
			vertex 7.6996239996885265 8.014139175415053 65.99712379062322
			vertex -7.880369248297313 8.014139175415053 61.99712379062322
		endloop
	endfacet
	facet normal -1 0 0
		outer loop
			vertex 7.6996239996885265 11.039376258850112 65.99712379062322
			vertex 7.6996239996885265 11.039376258850112 61.99712379062322
			vertex 7.6996239996885265 8.014139175415053 61.99712379062322
		endloop
	endfacet
	facet normal -1 0 0
		outer loop
			vertex 7.6996239996885265 8.014139175415053 65.99712379062322
			vertex 7.6996239996885265 11.039376258850112 65.99712379062322
			vertex 7.6996239996885265 8.014139175415053 61.99712379062322
		endloop
	endfacet
	facet normal 0 -1 2.4492935982947064e-16
		outer loop
			vertex -3.2920866631532704 11.039376258850112 65.99712379062322
			vertex -3.2920866631532704 11.039376258850112 61.99712379062322
			vertex 7.6996239996885265 11.039376258850112 65.99712379062322
		endloop
	endfacet
	facet normal 0 -1 2.4492935982947064e-16
		outer loop
			vertex 7.6996239996885265 11.039376258850112 65.99712379062322
			vertex -3.2920866631532704 11.039376258850112 61.99712379062322
			vertex 7.6996239996885265 11.039376258850112 61.99712379062322
		endloop
	endfacet
	facet normal 0.0011451575215043136 -0.8700556131911604 0.4929522477571279
		outer loop
			vertex 19.475249228570362 20.90183639526368 44.45674331271795
			vertex 19.475249228570362 28.653438568115245 58.13824088657048
			vertex 15.599875388238331 20.900115966796882 44.462709499241384
		endloop
	endfacet
	facet normal 0.0011448261770728603 -0.8700555732557911 0.492952319012256
		outer loop
			vertex 19.475249228570362 28.653438568115245 58.13824088657048
			vertex 15.617499289605519 28.651727676391612 58.14418037021306
			vertex 15.599875388238331 20.900115966796882 44.462709499241384
		endloop
	endfacet
	facet normal -0.0015443322192581698 0.010824130713517342 -0.9999402248296113
		outer loop
			vertex 19.475249228570362 28.653438568115245 58.13824088657048
			vertex 19.475249228570362 25.19141960144044 58.10076530063298
			vertex 15.617499289605519 28.651727676391612 58.14418037021306
		endloop
	endfacet
	facet normal -0.0015439344630939628 0.010824574102392829 -0.9999402206441521
		outer loop
			vertex 19.475249228570362 25.19141960144044 58.10076530063298
			vertex 15.618975577447316 25.189708709716808 58.10670096957829
			vertex 15.617499289605519 28.651727676391612 58.14418037021306
		endloop
	endfacet
	facet normal -0.0011355966508794675 0.8739718029471778 -0.4859753060326276
		outer loop
			vertex 19.475249228570362 19.173698425292976 47.27857215488103
			vertex 15.604987082574269 19.171981811523445 47.284528804661306
			vertex 19.475249228570362 25.19141960144044 58.10076530063298
		endloop
	endfacet
	facet normal -0.0011357750535696853 0.8739718298777969 -0.4859752571840293
		outer loop
			vertex 19.475249228570362 25.19141960144044 58.10076530063298
			vertex 15.604987082574269 19.171981811523445 47.284528804661306
			vertex 15.618975577447316 25.189708709716808 58.10670096957829
		endloop
	endfacet
	facet normal -0.00039401538834626693 -0.8632472239731163 -0.5047812150373491
		outer loop
			vertex 19.475249228570362 19.173698425292976 47.27857215488103
			vertex 19.475249228570362 12.923105239868175 57.96796996677068
			vertex 15.604987082574269 19.171981811523445 47.284528804661306
		endloop
	endfacet
	facet normal -0.0003941562620089019 -0.8632472461616815 -0.5047811769817833
		outer loop
			vertex 19.475249228570362 12.923105239868175 57.96796996677068
			vertex 15.624213156793019 12.921397209167491 57.97389800632146
			vertex 15.604987082574269 19.171981811523445 47.284528804661306
		endloop
	endfacet
	facet normal -0.0015440450389925045 0.010824124755623145 -0.9999402253375912
		outer loop
			vertex 19.475249228570362 12.923105239868175 57.96796996677068
			vertex 19.475249228570362 9.461084365844737 57.93049438083318
			vertex 15.624213156793019 12.921397209167491 57.97389800632146
		endloop
	endfacet
	facet normal -0.0015441390042710344 0.010824020192578044 -0.999940226324357
		outer loop
			vertex 19.475249228570362 9.461084365844737 57.93049438083318
			vertex 15.625689444634816 9.45937728881837 57.93642051303533
			vertex 15.624213156793019 12.921397209167491 57.97389800632146
		endloop
	endfacet
	facet normal 0.00040948294088269583 0.8582349638750545 0.5132568354207329
		outer loop
			vertex 19.475249228570362 17.540653228759773 44.42036063754705
			vertex 15.601309714410206 17.53893470764161 44.42632491672185
			vertex 19.475249228570362 9.461084365844737 57.93049438083318
		endloop
	endfacet
	facet normal 0.0004095415249437826 0.8582349712569802 0.5132568230304101
		outer loop
			vertex 19.475249228570362 9.461084365844737 57.93049438083318
			vertex 15.601309714410206 17.53893470764161 44.42632491672185
			vertex 15.625689444634816 9.45937728881837 57.93642051303533
		endloop
	endfacet
	facet normal -0.0004269405914465415 0.9999413231841809 0.010824412704670789
		outer loop
			vertex 19.475249228570362 17.65999603271485 33.395670009495284
			vertex 15.584284720513722 17.658269882202156 33.40166003787663
			vertex 19.475249228570362 17.540653228759773 44.42036063754705
		endloop
	endfacet
	facet normal -0.00042691954790881077 0.9999413232735958 0.010824405274652973
		outer loop
			vertex 19.475249228570362 17.540653228759773 44.42036063754705
			vertex 15.584284720513722 17.658269882202156 33.40166003787663
			vertex 15.601309714410206 17.53893470764161 44.42632491672185
		endloop
	endfacet
	facet normal 0.0015439795974777684 -0.010823860385764942 0.9999402283003481
		outer loop
			vertex 19.475249228570362 17.65999603271485 33.395670009495284
			vertex 19.475249228570362 21.021179199218757 33.43205316150334
			vertex 15.582850394341847 21.019453048706062 33.43804462039616
		endloop
	endfacet
	facet normal 0.0015441810269261368 -0.010823627029633008 0.9999402305152442
		outer loop
			vertex 19.475249228570362 17.65999603271485 33.395670009495284
			vertex 15.582850394341847 21.019453048706062 33.43804462039616
			vertex 15.584284720513722 17.658269882202156 33.40166003787663
		endloop
	endfacet
	facet normal 0.0004267792875214928 -0.9999413232479636 -0.010824413173536048
		outer loop
			vertex 19.475249228570362 21.021179199218757 33.43205316150334
			vertex 19.475249228570362 20.90183639526368 44.45674331271795
			vertex 15.582850394341847 21.019453048706062 33.43804462039616
		endloop
	endfacet
	facet normal 0.0004272480866434054 -0.999941321255301 -0.01082457875740727
		outer loop
			vertex 19.475249228570362 20.90183639526368 44.45674331271795
			vertex 15.599875388238331 20.900115966796882 44.462709499241384
			vertex 15.582850394341847 21.019453048706062 33.43804462039616
		endloop
	endfacet
	facet normal -7.130579572195717e-9 -0.9999996534520951 0.0008325236873723837
		outer loop
			vertex 4.5456837988828624 3.782695531845099 33.355682922245535
			vertex 8.108733115289112 3.782695531845099 33.35571343982366
			vertex 0.09023946294536245 3.7932536602020357 46.037715984226736
		endloop
	endfacet
	facet normal 2.9547571696514785e-9 -0.9999996534491453 0.0008325272305444524
		outer loop
			vertex -1.4185801171327626 3.7908465862274254 43.14643676364568
			vertex 4.5456837988828624 3.782695531845099 33.355682922245535
			vertex 0.09023946294536245 3.7932536602020357 46.037715984226736
		endloop
	endfacet
	facet normal 3.0730123971944883e-8 -0.9999996534658002 0.0008325072244263056
		outer loop
			vertex -7.2191477440858876 3.782695531845099 33.355682922245535
			vertex -1.4185801171327626 3.7908465862274254 43.14643676364568
			vertex -3.35356241693745 3.79332947731019 46.12893302524236
		endloop
	endfacet
	facet normal 0 -0.9999996534580583 0.0008325165243173311
		outer loop
			vertex -10.444062294867138 3.782695531845099 33.355682922245535
			vertex -7.2191477440858876 3.782695531845099 33.355682922245535
			vertex -3.35356241693745 3.79332947731019 46.12893302524236
		endloop
	endfacet
	facet normal 3.5438270361075034e-8 -0.999999653463257 0.0008325102789728378
		outer loop
			vertex -1.4185801171327626 3.7908465862274254 43.14643676364568
			vertex 0.09023946294536245 3.7932536602020357 46.037715984226736
			vertex -3.35356241693745 3.79332947731019 46.12893302524236
		endloop
	endfacet
	facet normal 3.549278262356111e-8 -0.9999996534615438 0.000832512337023615
		outer loop
			vertex -3.35356241693745 3.79332947731019 46.12893302524236
			vertex 0.09023946294536245 3.7932536602020357 46.037715984226736
			vertex -1.4543772362733876 3.795442342758189 48.666790080906424
		endloop
	endfacet
	facet normal -5.719067520414498e-8 -0.9999996534365958 0.0008325423024796388
		outer loop
			vertex 0.09023946294536245 3.7932536602020357 46.037715984226736
			vertex 7.676924643609425 3.803135156631482 57.90729529941228
			vertex 4.42304891118755 3.8031940460205202 57.977806163670095
		endloop
	endfacet
	facet normal 3.163394079382376e-8 -0.9999996534634313 0.0008325100699032601
		outer loop
			vertex -1.4543772362733876 3.795442342758189 48.666790080906424
			vertex 0.09023946294536245 3.7932536602020357 46.037715984226736
			vertex 4.42304891118755 3.8031940460205202 57.977806163670095
		endloop
	endfacet
	facet normal 6.745826316671901e-9 -0.9999996534436347 0.0008325338495652475
		outer loop
			vertex -3.35356241693745 3.79332947731019 46.12893302524236
			vertex -1.4543772362733876 3.795442342758189 48.666790080906424
			vertex -6.7149363183046376 3.8031940460205202 57.977806163670095
		endloop
	endfacet
	facet normal 5.3130740202730465e-8 -0.999999653432678 0.0008325470083634767
		outer loop
			vertex -3.35356241693745 3.79332947731019 46.12893302524236
			vertex -6.7149363183046376 3.8031940460205202 57.977806163670095
			vertex -10.009499611761669 3.80318355560304 57.965416026951345
		endloop
	endfacet
	facet normal 0 2.4492935982947064e-16 1
		outer loop
			vertex -3.2920866631532704 11.039376258850112 61.99712379062322
			vertex -7.880369248297313 8.854481697082534 61.99712379062322
			vertex -7.880369248297313 8.014139175415053 61.99712379062322
		endloop
	endfacet
	facet normal 0 2.4492935982947064e-16 1
		outer loop
			vertex 7.6996239996885265 8.014139175415053 61.99712379062322
			vertex -3.2920866631532704 11.039376258850112 61.99712379062322
			vertex -7.880369248297313 8.014139175415053 61.99712379062322
		endloop
	endfacet
	facet normal 0 2.4492935982947064e-16 1
		outer loop
			vertex 7.6996239996885265 11.039376258850112 61.99712379062322
			vertex -3.2920866631532704 11.039376258850112 61.99712379062322
			vertex 7.6996239996885265 8.014139175415053 61.99712379062322
		endloop
	endfacet
	facet normal 0 2.4492935982947064e-16 1
		outer loop
			vertex 2.7079781867002453 29.61099433898927 61.99712379062321
			vertex -7.7123022698427235 32.63624191284181 61.99712379062321
			vertex -7.7123022698427235 29.61099433898927 61.99712379062321
		endloop
	endfacet
	facet normal 0 2.4492935982947064e-16 1
		outer loop
			vertex 7.329871115777394 32.63624191284181 61.99712379062321
			vertex -7.7123022698427235 32.63624191284181 61.99712379062321
			vertex 2.7079781867002453 29.61099433898927 61.99712379062321
		endloop
	endfacet
	facet normal 0 2.4492935982947064e-16 1
		outer loop
			vertex 7.329871115777394 32.63624191284181 61.99712379062321
			vertex 2.7079781867002453 29.61099433898927 61.99712379062321
			vertex 7.329871115777394 31.795888900756847 61.99712379062321
		endloop
	endfacet
	facet normal 0 2.4492935982947064e-16 1
		outer loop
			vertex 2.7079781867002453 29.61099433898927 61.99712379062321
			vertex -7.880369248297313 8.854481697082534 61.99712379062322
			vertex -3.2920866631532704 11.039376258850112 61.99712379062322
		endloop
	endfacet
	facet normal 0 2.4492935982947064e-16 1
		outer loop
			vertex 2.7079781867002453 29.61099433898927 61.99712379062321
			vertex -3.2920866631532704 11.039376258850112 61.99712379062322
			vertex 7.329871115777394 31.795888900756847 61.99712379062321
		endloop
	endfacet
	facet normal 0.9999987167264964 0.000443396553707478 -0.0015394625219384013
		outer loop
			vertex 15.599875388238331 20.900115966796882 44.462709499241384
			vertex 15.584284720513722 17.658269882202156 33.40166003787663
			vertex 15.582850394341847 21.019453048706062 33.43804462039616
		endloop
	endfacet
	facet normal 0.9999987167262707 0.0004433968061196784 -0.001539462595916733
		outer loop
			vertex 15.599875388238331 20.900115966796882 44.462709499241384
			vertex 15.601309714410206 17.53893470764161 44.42632491672185
			vertex 15.584284720513722 17.658269882202156 33.40166003787663
		endloop
	endfacet
	facet normal 0.9999987159904109 0.00044340196321894233 -0.0015399390340028703
		outer loop
			vertex 15.604987082574269 19.171981811523445 47.284528804661306
			vertex 15.601309714410206 17.53893470764161 44.42632491672185
			vertex 15.599875388238331 20.900115966796882 44.462709499241384
		endloop
	endfacet
	facet normal 0.9999987166978808 0.0004430896376066605 -0.0015395694738826998
		outer loop
			vertex 15.624213156793019 12.921397209167491 57.97389800632146
			vertex 15.625689444634816 9.45937728881837 57.93642051303533
			vertex 15.601309714410206 17.53893470764161 44.42632491672185
		endloop
	endfacet
	facet normal 0.9999987166807487 0.00044288012882170833 -0.0015396408825602535
		outer loop
			vertex 15.624213156793019 12.921397209167491 57.97389800632146
			vertex 15.601309714410206 17.53893470764161 44.42632491672185
			vertex 15.604987082574269 19.171981811523445 47.284528804661306
		endloop
	endfacet
	facet normal 0.9999987163353067 0.0004440928470130355 -0.0015395159246575619
		outer loop
			vertex 15.618975577447316 25.189708709716808 58.10670096957829
			vertex 15.604987082574269 19.171981811523445 47.284528804661306
			vertex 15.599875388238331 20.900115966796882 44.462709499241384
		endloop
	endfacet
	facet normal 0.999998717268652 0.0004430866035621454 -0.001539199568788617
		outer loop
			vertex 15.617499289605519 28.651727676391612 58.14418037021306
			vertex 15.618975577447316 25.189708709716808 58.10670096957829
			vertex 15.599875388238331 20.900115966796882 44.462709499241384
		endloop
	endfacet
endsolid exported
