<?xml version="1.0" encoding="utf-8"?>
<!-- Generator: Adobe Illustrator 22.1.0, SVG Export Plug-In . SVG Version: 6.00 Build 0)  -->
<svg version="1.1" id="Vrstva_1" xmlns="http://www.w3.org/2000/svg" xmlns:xlink="http://www.w3.org/1999/xlink" x="0px" y="0px"
	 viewBox="0 0 500 500" style="enable-background:new 0 0 500 500;" xml:space="preserve">
<style type="text/css">
	.st0{fill:#00BAFF;}
</style>
<g>
	<path class="st0" d="M298.4,120.9c0-26.7-21.7-48.4-48.4-48.4s-48.4,21.7-48.4,48.4v8.1c0,4.5,3.6,8.1,8.1,8.1
		c4.5,0,8.1-3.6,8.1-8.1v-8.1c0-17.8,14.5-32.3,32.3-32.3c17.8,0,32.3,14.5,32.3,32.3v56.5h-121v153.3h177.5V177.4h-40.3V120.9z
		 M322.6,314.5H177.4v-121h145.2V314.5z"/>
	<path class="st0" d="M250,209.7c-17.8,0-32.3,14.5-32.3,32.3c0,15,10.3,27.5,24.2,31.1v17.3c0,4.5,3.6,8.1,8.1,8.1s8.1-3.6,8.1-8.1
		v-17.3c13.9-3.6,24.2-16.1,24.2-31.1C282.3,224.1,267.8,209.7,250,209.7z M250,258.1c-8.9,0-16.1-7.2-16.1-16.1s7.2-16.1,16.1-16.1
		s16.1,7.2,16.1,16.1S258.9,258.1,250,258.1z"/>
	<path class="st0" d="M250,8C129.9,8,32.2,105.7,32.2,225.8c0,113.8,87.8,207.5,199.2,217l-35.5,35.5c-3.2,3.2-3.2,8.3,0,11.4
		c1.6,1.6,3.6,2.4,5.7,2.4c2.1,0,4.1-0.8,5.7-2.4l48.4-48.4c0.8-0.7,1.3-1.6,1.8-2.6c0.8-2,0.8-4.2,0-6.2c-0.4-1-1-1.9-1.8-2.6
		l-48.4-48.4c-3.2-3.2-8.3-3.2-11.4,0c-3.2,3.2-3.2,8.3,0,11.4l33.6,33.6C127.9,416.1,48.3,330.1,48.3,225.8
		c0-111.2,90.5-201.7,201.7-201.7s201.7,90.5,201.7,201.7c0,53.5-20.7,103.9-58.4,141.9c-3.1,3.2-3.1,8.3,0.1,11.4
		c3.2,3.1,8.3,3.1,11.4-0.1c40.7-41.1,63.1-95.5,63.1-153.3C467.8,105.7,370.1,8,250,8z"/>
</g>
</svg>
