<?xml version="1.0" encoding="utf-8"?>
<!-- Generator: Adobe Illustrator 22.1.0, SVG Export Plug-In . SVG Version: 6.00 Build 0)  -->
<svg version="1.1" id="Vrstva_1" xmlns="http://www.w3.org/2000/svg" xmlns:xlink="http://www.w3.org/1999/xlink" x="0px" y="0px"
	 viewBox="0 0 512 512" style="enable-background:new 0 0 512 512;" xml:space="preserve">
<style type="text/css">
	.st0{fill:#00BBFF;}
	.st1{fill:#00D0FF;}
	.st2{fill:#00E3FF;}
	.st3{fill:#00BAFF;}
	.st4{font-family:'Helvetica';}
	.st5{font-size:134.7292px;}
</style>
<path class="st0" d="M160.4,306.1c-3.6,0-7.1-1.9-9.1-5.3c-2.9-5-1.1-11.4,3.9-14.3L259,227c5-2.9,11.4-1.1,14.3,3.9
	c2.9,5,1.1,11.4-3.9,14.3l-103.8,59.5C164,305.6,162.2,306.1,160.4,306.1z"/>
<path class="st0" d="M451.6,306.1c-1.8,0-3.6-0.4-5.2-1.4l-103.8-59.5c-5-2.9-6.7-9.3-3.9-14.3c2.9-5,9.3-6.7,14.3-3.9l103.8,59.5
	c5,2.9,6.7,9.3,3.9,14.3C458.7,304.2,455.2,306.1,451.6,306.1z"/>
<path class="st1" d="M306,393.1c-1.8,0-3.6-0.5-5.2-1.4l-145.6-84.3c-3.2-1.9-5.2-5.3-5.2-9V131.1c0-3.7,2-7.2,5.2-9l145.6-84.3
	c3.2-1.9,7.2-1.9,10.5,0L456.8,122c3.2,1.9,5.2,5.3,5.2,9v167.3c0,3.7-2,7.2-5.2,9l-145.6,84.3C309.6,392.7,307.8,393.1,306,393.1z
	 M170.9,292.3L306,370.6l135.1-78.3V137.1L306,58.8l-135.1,78.3V292.3z"/>
<path class="st2" d="M306,392.6c-5.8,0-10.4-4.7-10.4-10.5V220.2l-140.3-80.6c-3.4-1.9-5.2-5.5-5.2-9.1c0-1.8,0.4-3.6,1.4-5.2
	c2.9-5,9.3-6.7,14.3-3.9L306,202.1l140.4-80.6c5-2.9,11.4-1.2,14.3,3.9c0.9,1.6,1.4,3.4,1.4,5.2c0,3.6-1.9,7.1-5.2,9.1l-140.3,80.6
	v161.9C316.5,387.9,311.8,392.6,306,392.6z"/>
<path class="st3" d="M142.2,339.3c-3.2,0-6.2,1.7-7.8,4.4l-20.5,38.8C77.6,355.3,52.1,316,42,271.8c-9.7-42.9-4.5-87.6,14.1-122.7
	c12.1-22.9,31-43.5,54.5-59.7c24.5-16.8,52.5-27.9,81.9-32.2c4.7-0.7,7.9-5,7.3-9.7c-0.7-4.7-5-7.9-9.7-7.3
	c-32,4.7-62.5,16.8-89.1,35.1C75.1,93.1,54.4,115.8,41,141.1c-20.5,38.7-26.3,87.6-15.8,134.4c11.1,49.2,39.7,92.7,80.5,122.4
	l-22.6,42.8c-1.4,2.9-1.1,6.3,0.7,8.9c1.8,2.6,4.9,4.1,8.1,3.8l99.6-9.3c2.9-0.3,5.4-2,6.8-4.5c1.4-2.6,1.3-5.6,0-8.2l-48.4-87.6
	C148.3,341,145.4,339.3,142.2,339.3z M176.4,428l-70.7,6.6l36.4-68.8L176.4,428z"/>
<text transform="matrix(1 0 0 1 369.4619 471.5613)" class="st3 st4 st5">M</text>
</svg>
