<?xml version="1.0" encoding="utf-8"?>
<!-- Generator: Adobe Illustrator 22.1.0, SVG Export Plug-In . SVG Version: 6.00 Build 0)  -->
<svg version="1.1" id="Vrstva_1" xmlns="http://www.w3.org/2000/svg" xmlns:xlink="http://www.w3.org/1999/xlink" x="0px" y="0px"
	 viewBox="0 0 512 512" style="enable-background:new 0 0 512 512;" xml:space="preserve">
<style type="text/css">
	.st0{fill:#00BAFF;}
	.st1{display:none;}
	.st2{display:inline;fill:#00CFFF;}
	.st3{display:none;fill:#00BAFF;}
	.st4{fill:#00D0FF;}
	.st5{fill:#00E3FF;}
</style>
<path class="st0" d="M57.6,384.2c-4.9,0-9.7-2.6-12.4-7.2c-3.9-6.8-1.6-15.5,5.3-19.4l141.4-81.1c6.8-3.9,15.5-1.6,19.4,5.3
	c3.9,6.8,1.6,15.5-5.3,19.4L64.7,382.3C62.4,383.6,60,384.2,57.6,384.2z"/>
<path class="st0" d="M454.3,384.2c-2.4,0-4.8-0.6-7.1-1.9l-141.4-81.1c-6.8-3.9-9.2-12.6-5.3-19.4c3.9-6.8,12.6-9.2,19.4-5.3
	l141.4,81.1c6.8,3.9,9.2,12.6,5.3,19.4C464,381.7,459.2,384.2,454.3,384.2z"/>
<g class="st1">
	<path class="st2" d="M27.1,99.3c-7.9,0-14.2-6.4-14.2-14.2V27.1c0-7.9,6.4-14.2,14.2-14.2h57c7.9,0,14.2,6.4,14.2,14.2
		s-6.4,14.2-14.2,14.2H41.3V85C41.3,92.9,35,99.3,27.1,99.3z"/>
	<path class="st2" d="M484.8,99.3c-7.9,0-14.2-6.4-14.2-14.2V41.3h-42.7c-7.9,0-14.2-6.4-14.2-14.2s6.4-14.2,14.2-14.2h57
		c7.9,0,14.2,6.4,14.2,14.2V85C499,92.9,492.6,99.3,484.8,99.3z"/>
	<path class="st2" d="M84.1,499h-57c-7.9,0-14.2-6.4-14.2-14.2v-57.9c0-7.9,6.4-14.2,14.2-14.2s14.2,6.4,14.2,14.2v43.7h42.7
		c7.9,0,14.2,6.4,14.2,14.2S91.9,499,84.1,499z"/>
	<path class="st2" d="M484.8,499h-57c-7.9,0-14.2-6.4-14.2-14.2s6.4-14.2,14.2-14.2h42.7v-43.7c0-7.9,6.4-14.2,14.2-14.2
		c7.9,0,14.2,6.4,14.2,14.2v57.9C499,492.6,492.6,499,484.8,499z"/>
</g>
<polygon class="st3" points="256,256 456.3,139.9 456.3,364.6 256,479.7 "/>
<polygon class="st3" points="55.6,145.5 255.9,256 255.9,479.5 55.6,368.9 "/>
<polygon class="st3" points="255.9,28.6 58.1,141.5 255.9,256 451.5,142.3 "/>
<path class="st4" d="M255.9,499.1c-2.5,0-4.9-0.6-7.1-1.9L50.4,382.3c-4.4-2.5-7.1-7.2-7.1-12.3V142c0-5.1,2.7-9.8,7.1-12.3
	L248.8,14.8c4.4-2.6,9.9-2.6,14.3,0l198.4,114.9c4.4,2.5,7.1,7.2,7.1,12.3v228c0,5.1-2.7,9.8-7.1,12.3L263.1,497.2
	C260.9,498.5,258.4,499.1,255.9,499.1z M71.8,361.8l184.1,106.7L440,361.8V150.2L255.9,43.6L71.8,150.2V361.8z"/>
<path class="st5" d="M255.9,499.1c-7.9,0-14.2-6.4-14.2-14.2V264.2L50.5,154.4c-4.6-2.6-7.1-7.4-7.1-12.4c0-2.4,0.6-4.8,1.9-7.1
	c3.9-6.8,12.6-9.2,19.4-5.3l191.3,109.9l191.3-109.9c6.8-3.9,15.5-1.6,19.4,5.3c1.3,2.2,1.9,4.7,1.9,7.1c0,4.9-2.6,9.7-7.1,12.4
	L270.2,264.2v220.7C270.2,492.8,263.8,499.1,255.9,499.1z"/>
</svg>
