<?xml version="1.0" encoding="utf-8"?>
<!-- Generator: Adobe Illustrator 22.1.0, SVG Export Plug-In . SVG Version: 6.00 Build 0)  -->
<svg version="1.1" id="Vrstva_1" xmlns="http://www.w3.org/2000/svg" xmlns:xlink="http://www.w3.org/1999/xlink" x="0px" y="0px"
	 viewBox="0 0 512 512" style="enable-background:new 0 0 512 512;" xml:space="preserve">
<style type="text/css">
	.st0{fill:#00D0FF;}
</style>
<path class="st0" d="M255,22C126.3,22,22,126.3,22,255s104.3,233,233,233s233-104.3,233-233C487.8,126.4,383.6,22.2,255,22z
	 M255,458.9c-112.6,0-203.9-91.3-203.9-203.9S142.4,51.1,255,51.1S458.9,142.4,458.9,255C458.8,367.5,367.5,458.8,255,458.9z"/>
<path class="st0" d="M368.3,141.7c-5.7-5.7-14.9-5.7-20.6,0L255,234.4l-92.7-92.7c-5.6-5.8-14.8-5.9-20.6-0.4
	c-5.8,5.6-5.9,14.8-0.4,20.6c0.1,0.1,0.2,0.2,0.4,0.4l92.7,92.7l-92.7,92.7c-5.8,5.6-5.9,14.8-0.4,20.6c5.6,5.8,14.8,5.9,20.6,0.4
	c0.1-0.1,0.2-0.2,0.4-0.4l92.7-92.7l92.7,92.7c5.8,5.6,15,5.4,20.6-0.4c5.5-5.6,5.5-14.6,0-20.2L275.6,255l92.7-92.7
	C374,156.6,374,147.4,368.3,141.7z"/>
</svg>
