<?xml version="1.0" encoding="utf-8"?>
<!-- Generator: Adobe Illustrator 22.1.0, SVG Export Plug-In . SVG Version: 6.00 Build 0)  -->
<svg version="1.1" id="Vrstva_1" xmlns="http://www.w3.org/2000/svg" xmlns:xlink="http://www.w3.org/1999/xlink" x="0px" y="0px"
	 viewBox="0 0 512 512" style="enable-background:new 0 0 512 512;" xml:space="preserve">
<style type="text/css">
	.st0{fill:#00BBFF;}
	.st1{fill:#00D0FF;}
	.st2{fill:#00E3FF;}
	.st3{fill:#00BAFF;}
</style>
<path class="st0" d="M110.4,297.2c-3.6,0-7.1-1.9-9.1-5.3c-2.9-5-1.1-11.4,3.9-14.3l103.8-59.5c5-2.9,11.4-1.1,14.3,3.9
	c2.9,5,1.1,11.4-3.9,14.3l-103.8,59.5C113.9,296.7,112.1,297.2,110.4,297.2z"/>
<path class="st0" d="M401.5,297.2c-1.8,0-3.6-0.4-5.2-1.4l-103.8-59.5c-5-2.9-6.7-9.3-3.9-14.3c2.9-5,9.3-6.7,14.3-3.9l103.8,59.5
	c5,2.9,6.7,9.3,3.9,14.3C408.6,295.3,405.1,297.2,401.5,297.2z"/>
<path class="st1" d="M255.9,384.2c-1.8,0-3.6-0.5-5.2-1.4l-145.6-84.3c-3.2-1.9-5.2-5.3-5.2-9V122.2c0-3.7,2-7.2,5.2-9l145.6-84.3
	c3.2-1.9,7.2-1.9,10.5,0l145.6,84.3c3.2,1.9,5.2,5.3,5.2,9v167.3c0,3.7-2,7.2-5.2,9l-145.6,84.3
	C259.5,383.8,257.7,384.2,255.9,384.2z M120.8,283.4l135.1,78.3L391,283.4V128.2L255.9,49.9l-135.1,78.3V283.4z"/>
<path class="st2" d="M255.9,383.7c-5.8,0-10.4-4.7-10.4-10.5V211.3l-140.3-80.6c-3.4-1.9-5.2-5.5-5.2-9.1c0-1.8,0.4-3.6,1.4-5.2
	c2.9-5,9.3-6.7,14.3-3.9l140.4,80.6l140.4-80.6c5-2.9,11.4-1.2,14.3,3.9c0.9,1.6,1.4,3.4,1.4,5.2c0,3.6-1.9,7.1-5.2,9.1l-140.3,80.6
	v161.9C266.4,379,261.7,383.7,255.9,383.7z"/>
<path class="st3" d="M355.9,365.4c0,3.2,1.8,6.1,4.6,7.6l39.3,19.6c-26.4,37-65,63.4-109,74.6c-42.7,10.8-87.4,6.7-123-11
	c-23.2-11.5-44.3-29.9-61.1-53c-17.5-24.1-29.2-51.8-34.3-81.1c-0.8-4.7-5.2-7.8-9.9-7c-4.7,0.8-7.8,5.2-7,9.9
	c5.5,31.9,18.3,62.1,37.3,88.2c18.4,25.3,41.7,45.5,67.3,58.2c39.2,19.5,88.2,24.2,134.8,12.4c48.9-12.4,91.6-42,120.3-83.5
	l43.3,21.6c2.9,1.3,6.3,1,8.9-0.9c2.6-1.9,4-5,3.6-8.2l-11.8-99.3c-0.3-2.9-2.1-5.4-4.7-6.7c-2.6-1.3-5.7-1.2-8.2,0.3l-86.4,50.5
	C357.5,359.2,355.8,362.2,355.9,365.4z M443.7,329l8.4,70.5l-69.7-34.7L443.7,329z"/>
</svg>
