<?xml version="1.0" encoding="utf-8"?>
<!-- Generator: Adobe Illustrator 22.1.0, SVG Export Plug-In . SVG Version: 6.00 Build 0)  -->
<svg version="1.1" id="Vrstva_1" xmlns="http://www.w3.org/2000/svg" xmlns:xlink="http://www.w3.org/1999/xlink" x="0px" y="0px"
	 viewBox="0 0 500 500" style="enable-background:new 0 0 500 500;" xml:space="preserve">
<style type="text/css">
	.st0{fill:#00BBFF;}
	.st1{fill:#00D0FF;}
	.st2{fill:#00E3FF;}
	.st3{fill:none;stroke:#00BAFF;stroke-width:19;stroke-linecap:round;stroke-linejoin:round;stroke-miterlimit:10;}
</style>
<path class="st0" d="M104.4,349.2c-3.6,0-7.1-1.9-9.1-5.3c-2.9-5-1.1-11.4,3.9-14.3L203,270.2c5-2.9,11.4-1.1,14.3,3.9
	c2.9,5,1.1,11.4-3.9,14.3l-103.8,59.5C108,348.7,106.2,349.2,104.4,349.2z"/>
<path class="st0" d="M395.6,349.2c-1.8,0-3.6-0.4-5.2-1.4l-103.8-59.5c-5-2.9-6.7-9.3-3.9-14.3c2.9-5,9.3-6.7,14.3-3.9l103.8,59.5
	c5,2.9,6.7,9.3,3.9,14.3C402.7,347.3,399.2,349.2,395.6,349.2z"/>
<path class="st1" d="M250,436.3c-1.8,0-3.6-0.5-5.2-1.4L99.2,350.5c-3.2-1.9-5.2-5.3-5.2-9V174.2c0-3.7,2-7.2,5.2-9l145.6-84.3
	c3.2-1.9,7.2-1.9,10.5,0l145.6,84.3c3.2,1.9,5.2,5.3,5.2,9v167.3c0,3.7-2,7.2-5.2,9l-145.6,84.3C253.6,435.8,251.8,436.3,250,436.3z
	 M114.9,335.5L250,413.7l135.1-78.3V180.2L250,102l-135.1,78.3V335.5z"/>
<path class="st2" d="M250,435.7c-5.8,0-10.4-4.7-10.4-10.5V263.4L99.2,182.7c-3.4-1.9-5.2-5.5-5.2-9.1c0-1.8,0.4-3.6,1.4-5.2
	c2.9-5,9.3-6.7,14.3-3.9L250,245.3l140.4-80.6c5-2.9,11.4-1.2,14.3,3.9c0.9,1.6,1.4,3.4,1.4,5.2c0,3.6-1.9,7.1-5.2,9.1l-140.3,80.6
	v161.9C260.5,431.1,255.8,435.7,250,435.7z"/>
<line class="st3" x1="377.5" y1="55.5" x2="445.5" y2="55.5"/>
<line class="st3" x1="54.5" y1="445.5" x2="122.5" y2="445.5"/>
<line class="st3" x1="54.5" y1="443.5" x2="54.5" y2="375.5"/>
<line class="st3" x1="445.5" y1="124.5" x2="445.5" y2="56.5"/>
</svg>
