<?xml version="1.0" encoding="utf-8"?>
<!-- Generator: Adobe Illustrator 22.1.0, SVG Export Plug-In . SVG Version: 6.00 Build 0)  -->
<svg version="1.1" id="Vrstva_1" xmlns="http://www.w3.org/2000/svg" xmlns:xlink="http://www.w3.org/1999/xlink" x="0px" y="0px"
	 viewBox="0 0 512 512" style="enable-background:new 0 0 512 512;" xml:space="preserve">
<style type="text/css">
	.st0{fill:#00D0FF;}
	.st1{fill:#00BAFF;}
	.st2{fill:#00E3FF;}
</style>
<path class="st0" d="M412.5,412.2l-40.3-15l40.3-15c7.3-2.7,11-10.9,8.3-18.2c-2.7-7.3-10.9-11-18.2-8.3l-70.9,26.4l-35.5-13.2
	l39.9-15c7.3-2.7,11-10.9,8.3-18.2c-2.7-7.3-10.9-11-18.2-8.3L256,353.9l-70.4-26.4c-7.3-2.7-15.4,1-18.2,8.3
	c-2.7,7.3,1,15.4,8.3,18.2l39.9,15l-35.5,13.2l-70.9-26.4c-7.3-2.7-15.4,1-18.2,8.3c-2.7,7.3,1,15.4,8.3,18.2l40.3,15l-40.3,15
	c-7.3,2.7-11,10.9-8.3,18.2c2.7,7.3,10.9,11,18.2,8.3l70.9-26.4l35.5,13.2l-39.9,15c-7.3,2.7-11,10.9-8.3,18.2
	c2.7,7.3,10.9,11,18.2,8.3l70.4-26.4l70.4,26.4c1.6,0.6,3.3,0.9,5,0.9c5.7,0,11.1-3.5,13.2-9.2c2.7-7.3-1-15.4-8.3-18.2l-39.9-15
	l35.5-13.2l70.9,26.4c1.6,0.6,3.3,0.9,4.9,0.9c5.7,0,11.1-3.5,13.2-9.2C423.5,423.1,419.8,414.9,412.5,412.2z M256,384l35.3,13.2
	L256,410.4l-35.3-13.2L256,384z"/>
<path class="st1" d="M256,281c-2.1,0-4.2-0.5-6.1-1.4l-113.9-55c-4.9-2.4-8-7.3-8-12.7V83.3c0-5.4,3.1-10.4,8.1-12.8l113.9-54.2
	c3.8-1.8,8.3-1.8,12.1,0l114.9,54.2c4.9,2.3,8.1,7.3,8.1,12.8v128.6c0,5.4-3.1,10.4-8,12.7l-114.9,55C260.2,280.6,258.1,281,256,281
	z M156.2,203.1l99.8,48.2L356.7,203V92.2L256,44.7l-99.8,47.5V203.1z"/>
<path class="st2" d="M383.3,76.6c-3.6-6.7-11.9-9.4-18.7-6L256,124.8L148.4,70.7c-6.8-3.4-15.1-0.8-18.8,5.9
	c-3.6,6.7-1.3,15.1,5.4,18.9l0.6,0.4c0.6,0.3,1.1,0.6,1.7,0.8l104.5,52.5v117.7c0,7.8,6.3,14.1,14.1,14.1c7.8,0,14.1-6.3,14.1-14.1
	V149.3l105.4-52.5c0.6-0.2,1.2-0.5,1.8-0.9l0.6-0.4C384.5,91.7,386.9,83.3,383.3,76.6z"/>
<g>
	<path class="st0" d="M26.6,212.7c-6.4,0-11.6-6.3-11.6-14.1v-28.2c0-7.8,5.2-14.1,11.6-14.1s11.6,6.3,11.6,14.1v28.2
		C38.3,206.4,33.1,212.7,26.6,212.7z"/>
	<path class="st0" d="M26.6,297.4c-6.4,0-11.6-6.3-11.6-14.1v-28.2c0-7.8,5.2-14.1,11.6-14.1s11.6,6.3,11.6,14.1v28.2
		C38.3,291.1,33.1,297.4,26.6,297.4z"/>
	<path class="st0" d="M26.6,411.3c-6.4,0-11.6-6.3-11.6-14.1v-56.5c0-7.8,5.2-14.1,11.6-14.1s11.6,6.3,11.6,14.1v56.5
		C38.3,405,33.1,411.3,26.6,411.3z"/>
	<path class="st0" d="M485.1,212.7c-6.6,0-11.9-6.3-11.9-14.1v-28.2c0-7.8,5.3-14.1,11.9-14.1c6.6,0,11.9,6.3,11.9,14.1v28.2
		C497,206.4,491.7,212.7,485.1,212.7z"/>
	<path class="st0" d="M485.1,297.4c-6.6,0-11.9-6.3-11.9-14.1v-28.2c0-7.8,5.3-14.1,11.9-14.1c6.6,0,11.9,6.3,11.9,14.1v28.2
		C497,291.1,491.7,297.4,485.1,297.4z"/>
	<path class="st0" d="M485.1,411.3c-6.6,0-11.9-6.3-11.9-14.1v-56.5c0-7.8,5.3-14.1,11.9-14.1c6.6,0,11.9,6.3,11.9,14.1v56.5
		C497,405,491.7,411.3,485.1,411.3z"/>
	<path class="st0" d="M83,156.2c-6.4,0-11.5-6.3-11.5-14.1v-28.2c0-7.8,5.1-14.1,11.5-14.1s11.5,6.3,11.5,14.1v28.2
		C94.5,149.9,89.3,156.2,83,156.2z"/>
	<path class="st0" d="M83,240.9c-6.4,0-11.5-6.3-11.5-14.1v-28.2c0-7.8,5.1-14.1,11.5-14.1s11.5,6.3,11.5,14.1v28.2
		C94.5,234.6,89.3,240.9,83,240.9z"/>
	<path class="st0" d="M83,326.6c-6.4,0-11.5-6.3-11.5-14.1v-29.2c0-7.8,5.1-14.1,11.5-14.1s11.5,6.3,11.5,14.1v29.2
		C94.5,320.3,89.3,326.6,83,326.6z"/>
	<path class="st0" d="M428.7,156.2c-6.5,0-11.8-6.3-11.8-14.1v-28.2c0-7.8,5.3-14.1,11.8-14.1s11.8,6.3,11.8,14.1v28.2
		C440.5,149.9,435.2,156.2,428.7,156.2z"/>
	<path class="st0" d="M428.7,240.9c-6.5,0-11.8-6.3-11.8-14.1v-28.2c0-7.8,5.3-14.1,11.8-14.1s11.8,6.3,11.8,14.1v28.2
		C440.5,234.6,435.2,240.9,428.7,240.9z"/>
	<path class="st0" d="M428.7,326.6c-6.5,0-11.8-6.3-11.8-14.1v-29.2c0-7.8,5.3-14.1,11.8-14.1s11.8,6.3,11.8,14.1v29.2
		C440.5,320.3,435.2,326.6,428.7,326.6z"/>
</g>
<path class="st2" d="M256,497c-1.7,0-3.4-0.3-5-0.9L24.1,410.4c-5.5-2.1-9.1-7.4-9.1-13.2s3.7-11.1,9.2-13.2l226.9-84.7
	c3.2-1.2,6.7-1.2,9.9,0L487.8,384c5.5,2.1,9.2,7.3,9.2,13.2c0,5.9-3.6,11.2-9.1,13.2L261,496.1C259.4,496.7,257.7,497,256,497z
	 M69.3,397.3L256,467.8l186.7-70.5L256,327.6L69.3,397.3z"/>
</svg>
