<?xml version="1.0" encoding="utf-8"?>
<!-- Generator: Adobe Illustrator 22.1.0, SVG Export Plug-In . SVG Version: 6.00 Build 0)  -->
<svg version="1.1" id="Layer_1" xmlns="http://www.w3.org/2000/svg" xmlns:xlink="http://www.w3.org/1999/xlink" x="0px" y="0px"
	 viewBox="0 0 490 490" style="enable-background:new 0 0 490 490;" xml:space="preserve">
<style type="text/css">
	.st0{fill:#666666;}
	.st1{fill:#00BAFF;}
</style>
<g>
	<g>
		<path class="st0" d="M240.2,17.8l-23,9.5c-12.3,5.1-18.1,19.3-13.1,31.6l5.9,14.3c-11.5,8.6-21.6,18.8-30.2,30.4l-14.3-5.9
			c-5.9-2.5-12.5-2.5-18.4,0c-5.9,2.5-10.6,7.2-13.1,13.1l-9.6,23.1c-5.1,12.4,0.8,26.5,13.1,31.6l21.1,8.8c4.8,2,10.1-0.3,12.1-5.1
			c2-4.8-0.3-10.2-5.1-12.2l-21.1-8.8c-2.8-1.1-4.1-4.4-3-7.3l9.6-23.1c0.6-1.3,1.6-2.5,3-3c1.3-0.6,2.8-0.6,4.2,0l21.1,8.8
			c4.1,1.7,8.8,0.3,11.3-3.4c9.5-14.3,21.5-26.4,35.8-35.9c3.7-2.5,5.2-7.3,3.5-11.3l-8.7-21.2c-1.1-2.8,0.2-6,3-7.3l23-9.5
			c1.3-0.6,2.8-0.6,4.2,0c1.3,0.6,2.4,1.6,3,3l8.7,21.2c1.7,4.1,6,6.5,10.4,5.6c16.7-3.4,33.8-3.3,50.5,0c4.3,0.8,8.7-1.5,10.4-5.6
			l8.7-21.2c1.1-2.8,4.4-4.1,7.2-3l23,9.6c1.3,0.6,2.4,1.6,3,3c0.6,1.3,0.6,2.8,0,4.2l-8.7,21.2c-1.7,4.1-0.3,8.9,3.4,11.3
			c14.3,9.5,26.3,21.6,35.8,35.9c2.4,3.7,7.2,5.2,11.3,3.5l21.1-8.8c1.4-0.6,2.8-0.6,4.2,0c1.3,0.6,2.4,1.6,3,3l9.5,23.1
			c0.6,1.3,0.6,2.8,0,4.2c-0.6,1.3-1.6,2.5-3,3l-21.1,8.8c-4.1,1.7-6.4,6-5.5,10.5c3.4,16.8,3.3,34,0,50.7
			c-0.8,4.3,1.5,8.8,5.5,10.5l21.1,8.8c2.8,1.1,4.1,4.4,3,7.3l-9.6,23.1c-1.1,2.8-4.4,4.1-7.2,3l-21.1-8.8
			c-4.1-1.7-8.8-0.3-11.3,3.4c-9.5,14.3-21.5,26.4-35.8,35.9c-3.7,2.5-5.2,7.3-3.5,11.3l8.7,21.2c0.6,1.3,0.6,2.8,0,4.2
			c-0.6,1.3-1.6,2.5-3,3l-23,9.5c-1.3,0.6-2.8,0.6-4.2,0c-1.3-0.6-2.4-1.6-3-3l-8.7-21.2c-2-4.8-7.4-7.1-12.1-5.1
			c-4.8,2-7,7.5-5.1,12.2L326,355c2.4,5.9,7.1,10.7,13.1,13.1c3,1.2,6.1,1.9,9.2,1.9s6.3-0.7,9.2-1.9l23-9.5
			c5.9-2.5,10.6-7.2,13.1-13.1c2.4-5.9,2.4-12.5,0-18.5l-5.9-14.3c11.5-8.6,21.6-18.8,30.2-30.4l14.3,5.9
			c12.3,5.1,26.4-0.8,31.5-13.1l9.6-23.1c5.1-12.4-0.8-26.5-13.1-31.6l-14.3-5.9c2.1-14.2,2.1-28.7,0-42.9l14.3-5.9
			c5.9-2.5,10.6-7.2,13.1-13.1c2.4-5.9,2.4-12.5,0-18.5l-9.5-23.1c-2.4-5.9-7.1-10.7-13.1-13.1s-12.5-2.5-18.4,0l-14.3,5.9
			c-8.5-11.6-18.7-21.8-30.1-30.4l5.9-14.3c2.4-5.9,2.4-12.5,0-18.5s-7.1-10.7-13.1-13.1l-23-9.6c-12.3-5.1-26.4,0.8-31.5,13.1
			l-5.9,14.3c-14.2-2.1-28.5-2.1-42.7,0l-5.9-14.3c-2.4-5.9-7.1-10.7-13.1-13.1C252.7,15.4,246.1,15.4,240.2,17.8z"/>
		<path class="st0" d="M374.5,192.4c-0.3-41.7-34.2-75.4-75.6-75.4c-0.2,0-0.4,0-0.6,0c-20.2,0.2-39.2,8.2-53.3,22.6
			c-14.2,14.4-21.9,33.6-21.8,53.9c0,5.1,4.2,9.2,9.3,9.2h0.1c5.2,0,9.3-4.2,9.2-9.4c-0.1-15.3,5.7-29.7,16.4-40.7
			c10.7-10.9,25-17,40.2-17.1c0.1,0,0.3,0,0.4,0c31.3,0,56.8,25.5,57,56.9c0.2,31.6-25.2,57.4-56.6,57.7c-5.2,0-9.3,4.2-9.2,9.4
			c0,5.1,4.2,9.2,9.3,9.2c0,0,0,0,0.1,0C341.1,268.6,374.8,234.3,374.5,192.4z"/>
		<path class="st1" d="M142,474h18.1c11.1,0,20.1-9.1,20.1-20.2v-9.3c9-2.5,17.7-6,25.7-10.8l6.6,6.6c3.8,3.8,8.8,5.9,14.2,5.9
			c5.4,0,10.4-2.1,14.2-5.9l12.8-12.8c3.8-3.8,5.9-8.9,5.9-14.2s-2.1-10.5-5.9-14.2l-6.6-6.6c4.7-8.1,8.3-16.8,10.7-25.8h9.3
			c11.1,0,20.1-9.1,20.1-20.2v-18.2c0-11.1-9-20.2-20.1-20.2h-9.3c-2.4-9.1-6-17.7-10.7-25.8l6.6-6.6c3.8-3.8,5.9-8.9,5.9-14.2
			s-2.1-10.5-5.9-14.2l-12.8-12.8c-3.8-3.8-8.8-5.9-14.2-5.9c-5.4,0-10.4,2.1-14.2,5.9l-6.6,6.6c-8.1-4.7-16.7-8.3-25.7-10.8v-9.3
			c0-11.1-9-20.2-20.1-20.2H142c-11.1,0-20.1,9.1-20.1,20.2v9.3c-9,2.5-17.7,6-25.7,10.8l-6.6-6.6c-3.8-3.8-8.8-5.9-14.2-5.9
			c-5.4,0-10.4,2.1-14.2,5.9L48.5,247c-7.8,7.8-7.8,20.7,0,28.5l6.6,6.6c-4.7,8.1-8.3,16.8-10.7,25.8H35c-11.1,0-20.1,9.1-20.1,20.2
			v18.2c0,11.1,9,20.2,20.1,20.2h9.3c2.4,9.1,6,17.7,10.7,25.8l-6.6,6.6c-7.8,7.8-7.8,20.7,0,28.5l12.8,12.8
			c3.8,3.8,8.8,5.9,14.2,5.9c5.4,0,10.4-2.1,14.2-5.9l6.6-6.6c8.1,4.7,16.7,8.3,25.7,10.8v9.3C122,464.9,131,474,142,474z
			 M100,414.2c-1.6-1-3.4-1.6-5.2-1.6c-2.4,0-4.8,0.9-6.6,2.7l-11.7,11.8c-0.4,0.4-0.8,0.5-1,0.5c-0.3,0-0.7-0.1-1-0.5l-12.8-12.8
			c-0.6-0.6-0.6-1.5,0-2.1l11.7-11.8c3.1-3.1,3.7-8.1,1.1-11.8c-6.8-10.1-11.4-21.3-13.7-33.2c-0.8-4.3-4.7-7.5-9.1-7.5H35.1
			c-0.8,0-1.5-0.7-1.5-1.5v-18.2c0-0.8,0.7-1.5,1.5-1.5h16.6c4.4,0,8.3-3.1,9.1-7.5c2.3-11.9,6.9-23.1,13.7-33.2
			c2.4-3.7,2-8.7-1.1-11.8l-11.7-11.8c-0.6-0.6-0.6-1.5,0-2.1l12.8-12.8c0.4-0.4,0.8-0.5,1-0.5c0.3,0,0.7,0.1,1,0.5l11.7,12
			c3.1,3.1,8.1,3.7,11.7,1.1c10-6.8,21.2-11.4,33.1-13.8c4.3-0.8,7.5-4.7,7.5-9.1v-16.7c0-0.8,0.7-1.5,1.5-1.5h18.1
			c0.8,0,1.5,0.7,1.5,1.5v16.7c0,4.4,3.1,8.3,7.5,9.1c11.8,2.4,23,7,33.1,13.8c3.7,2.5,8.6,2,11.7-1.1l11.7-11.8
			c0.4-0.4,0.8-0.5,1-0.5s0.7,0.1,1,0.5l12.8,12.8c0.4,0.4,0.5,0.8,0.5,1c0,0.3-0.1,0.7-0.5,1l-11.7,11.8c-3.1,3.1-3.7,8.1-1.1,11.8
			c6.8,10.1,11.4,21.3,13.7,33.2c0.8,4.3,4.7,7.5,9.1,7.5h16.6c0.8,0,1.5,0.7,1.5,1.5v18.2c0,0.8-0.7,1.5-1.5,1.5h-16.6
			c-4.4,0-8.3,3.1-9.1,7.5c-2.3,11.9-6.9,23.1-13.7,33.2c-2.4,3.7-2,8.7,1.1,11.8l11.7,11.8c0.4,0.4,0.5,0.8,0.5,1s-0.1,0.7-0.5,1
			l-12.8,12.8c-0.4,0.4-0.8,0.5-1,0.5s-0.7-0.1-1-0.5L214,415.5c-3.1-3.1-8.1-3.7-11.7-1.1c-10,6.8-21.2,11.4-33.1,13.8
			c-4.3,0.8-7.5,4.7-7.5,9.1V454c0,0.8-0.7,1.5-1.5,1.5h-18.1c-0.8,0-1.5-0.7-1.5-1.5v-16.7c0-4.4-3.1-8.3-7.5-9.1
			C121.2,425.6,110.1,420.9,100,414.2z"/>
		<path class="st1" d="M206.2,337.4c0-30.6-24.8-55.5-55.2-55.5s-55.1,24.9-55.1,55.5s24.8,55.5,55.2,55.5S206.2,367.9,206.2,337.4z
			 M114.5,337.4c0-20.3,16.4-36.8,36.6-36.8s36.6,16.5,36.6,36.8c0,20.3-16.4,36.8-36.6,36.8S114.5,357.6,114.5,337.4z"/>
	</g>
</g>
</svg>
