<?xml version="1.0" encoding="utf-8"?>
<!-- Generator: Adobe Illustrator 22.1.0, SVG Export Plug-In . SVG Version: 6.00 Build 0)  -->
<svg version="1.1" id="Vrstva_1" xmlns="http://www.w3.org/2000/svg" xmlns:xlink="http://www.w3.org/1999/xlink" x="0px" y="0px"
	 viewBox="0 0 512 512" style="enable-background:new 0 0 512 512;" xml:space="preserve">
<style type="text/css">
	.st0{fill:#00BBFF;}
	.st1{fill:#00D0FF;}
	.st2{fill:#00E3FF;}
	.st3{fill:#00BAFF;}
</style>
<path class="st0" d="M168.6,321.6c-3.6,0-7.1-1.9-9.1-5.3c-2.9-5-1.1-11.4,3.9-14.3l103.8-59.5c5-2.9,11.4-1.1,14.3,3.9
	c2.9,5,1.1,11.4-3.9,14.3l-103.8,59.5C172.1,321.1,170.3,321.6,168.6,321.6z"/>
<path class="st0" d="M459.7,321.6c-1.8,0-3.6-0.4-5.2-1.4l-103.8-59.5c-5-2.9-6.7-9.3-3.9-14.3c2.9-5,9.3-6.7,14.3-3.9l103.8,59.5
	c5,2.9,6.7,9.3,3.9,14.3C466.8,319.7,463.3,321.6,459.7,321.6z"/>
<path class="st1" d="M314.1,408.7c-1.8,0-3.6-0.5-5.2-1.4l-145.6-84.3c-3.2-1.9-5.2-5.3-5.2-9V146.6c0-3.7,2-7.2,5.2-9l145.6-84.3
	c3.2-1.9,7.2-1.9,10.5,0l145.6,84.3c3.2,1.9,5.2,5.3,5.2,9v167.3c0,3.7-2,7.2-5.2,9l-145.6,84.3
	C317.7,408.2,315.9,408.7,314.1,408.7z M179,307.9l135.1,78.3l135.1-78.3V152.6L314.1,74.4L179,152.6V307.9z"/>
<path class="st2" d="M314.1,408.1c-5.8,0-10.4-4.7-10.4-10.5V235.8l-140.3-80.6c-3.4-1.9-5.2-5.5-5.2-9.1c0-1.8,0.4-3.6,1.4-5.2
	c2.9-5,9.3-6.7,14.3-3.9l140.4,80.6L454.5,137c5-2.9,11.4-1.2,14.3,3.9c0.9,1.6,1.4,3.4,1.4,5.2c0,3.6-1.9,7.1-5.2,9.1l-140.3,80.6
	v161.9C324.6,403.5,319.9,408.1,314.1,408.1z"/>
<path class="st3" d="M148.5,348.5c-3.2,0-6.2,1.7-7.8,4.4l-20.5,38.8C83.9,364.5,58.5,325.3,48.4,281c-9.7-42.9-4.5-87.6,14.1-122.7
	c12.1-22.9,31-43.5,54.5-59.7c24.5-16.8,52.5-27.9,81.9-32.2c4.7-0.7,7.9-5,7.3-9.7c-0.7-4.7-5-7.9-9.7-7.3
	c-32,4.7-62.5,16.8-89.1,35.1c-25.8,17.8-46.5,40.5-59.9,65.8C26.9,189,21,237.9,31.6,284.8c11.1,49.2,39.7,92.7,80.5,122.4
	l-22.6,42.8c-1.4,2.9-1.1,6.3,0.7,8.9c1.8,2.6,4.9,4.1,8.1,3.8l99.6-9.3c2.9-0.3,5.4-2,6.8-4.5c1.4-2.6,1.3-5.6,0-8.2L156.2,353
	C154.6,350.3,151.7,348.5,148.5,348.5z M182.7,437.2l-70.7,6.6l36.4-68.8L182.7,437.2z"/>
</svg>
