<?xml version="1.0" encoding="utf-8"?>
<!-- Generator: Adobe Illustrator 22.1.0, SVG Export Plug-In . SVG Version: 6.00 Build 0)  -->
<svg version="1.1" id="Vrstva_1" xmlns="http://www.w3.org/2000/svg" xmlns:xlink="http://www.w3.org/1999/xlink" x="0px" y="0px"
	 viewBox="0 0 512 512" style="enable-background:new 0 0 512 512;" xml:space="preserve">
<style type="text/css">
	.st0{fill:#00BBFF;}
	.st1{fill:#00D0FF;}
	.st2{fill:#00E3FF;}
	.st3{fill:#00BAFF;}
</style>
<path class="st0" d="M73.5,363.6c-3.6,0-7.1-1.9-9.1-5.3c-2.9-5-1.1-11.4,3.9-14.3l103.8-59.5c5-2.9,11.4-1.1,14.3,3.9
	c2.9,5,1.1,11.4-3.9,14.3L78.7,362.2C77.1,363.1,75.3,363.6,73.5,363.6z"/>
<path class="st0" d="M364.6,363.6c-1.8,0-3.6-0.4-5.2-1.4l-103.8-59.5c-5-2.9-6.7-9.3-3.9-14.3c2.9-5,9.3-6.7,14.3-3.9l103.8,59.5
	c5,2.9,6.7,9.3,3.9,14.3C371.8,361.7,368.3,363.6,364.6,363.6z"/>
<path class="st1" d="M219.1,450.7c-1.8,0-3.6-0.5-5.2-1.4L68.3,364.9c-3.2-1.9-5.2-5.3-5.2-9V188.6c0-3.7,2-7.2,5.2-9l145.6-84.3
	c3.2-1.9,7.2-1.9,10.5,0l145.6,84.3c3.2,1.9,5.2,5.3,5.2,9v167.3c0,3.7-2,7.2-5.2,9l-145.6,84.3
	C222.7,450.2,220.9,450.7,219.1,450.7z M84,349.9l135.1,78.3l135.1-78.3V194.6l-135.1-78.3L84,194.6V349.9z"/>
<path class="st2" d="M219.1,450.1c-5.8,0-10.4-4.7-10.4-10.5V277.8L68.3,197.1c-3.4-1.9-5.2-5.5-5.2-9.1c0-1.8,0.4-3.6,1.4-5.2
	c2.9-5,9.3-6.7,14.3-3.9l140.4,80.6L359.5,179c5-2.9,11.4-1.2,14.3,3.9c0.9,1.6,1.4,3.4,1.4,5.2c0,3.6-1.9,7.1-5.2,9.1l-140.3,80.6
	v161.9C229.5,445.5,224.9,450.1,219.1,450.1z"/>
<path class="st3" d="M374,155.9c3.2,0,6.2-1.7,7.8-4.4l20.5-38.8c36.3,27.3,61.8,66.5,71.9,110.8c9.7,42.9,4.5,87.6-14.1,122.7
	c-12.1,22.9-31,43.5-54.5,59.7c-24.5,16.8-52.5,27.9-81.9,32.2c-4.7,0.7-7.9,5-7.3,9.7c0.7,4.7,5,7.9,9.7,7.3
	c32-4.7,62.5-16.8,89.1-35.1c25.8-17.8,46.5-40.5,59.9-65.8c20.5-38.7,26.3-87.6,15.8-134.4c-11.1-49.2-39.7-92.7-80.5-122.4
	l22.6-42.8c1.4-2.9,1.1-6.3-0.7-8.9c-1.8-2.6-4.9-4.1-8.1-3.8l-99.6,9.3c-2.9,0.3-5.4,2-6.8,4.5c-1.4,2.6-1.3,5.6,0,8.2l48.4,87.6
	C367.9,154.2,370.8,155.9,374,155.9z M339.8,67.2l70.7-6.6L374,129.4L339.8,67.2z"/>
</svg>
